<?xml version="1.0" encoding="UTF-8"?>
<svg version="1.0" xmlns="http://www.w3.org/2000/svg"
 width="48.000000pt" height="48.000000pt" viewBox="0 0 48.000000 48.000000"
 preserveAspectRatio="xMidYMid meet">
<path d="M0 0 C1 1 1 1 1.11352539 2.76586914 C1.10828857 3.51473389 1.10305176 4.26359863 1.09765625 5.03515625 C1.09443359 5.84404297 1.09121094 6.65292969 1.08789062 7.48632812 C1.07532227 8.7615332 1.07532227 8.7615332 1.0625 10.0625 C1.05798828 10.91650391 1.05347656 11.77050781 1.04882812 12.65039062 C1.03700373 14.76695663 1.01906769 16.88348685 1 19 C-2.32096939 20.36582666 -5.6570272 21.68903027 -9 23 C-9.77601562 23.3196875 -10.55203125 23.639375 -11.3515625 23.96875 C-22.03882914 28.04728285 -31.80166456 23.85039195 -42 20 C-43 19 -43 19 -43.11352539 17.23413086 C-43.10828857 16.48526611 -43.10305176 15.73640137 -43.09765625 14.96484375 C-43.09443359 14.15595703 -43.09121094 13.34707031 -43.08789062 12.51367188 C-43.07951172 11.66353516 -43.07113281 10.81339844 -43.0625 9.9375 C-43.05798828 9.08349609 -43.05347656 8.22949219 -43.04882812 7.34960938 C-43.03700373 5.23304337 -43.01906769 3.11651315 -43 1 C-39.67903061 -0.36582666 -36.3429728 -1.68903027 -33 -3 C-32.22398438 -3.3196875 -31.44796875 -3.639375 -30.6484375 -3.96875 C-19.96117086 -8.04728285 -10.19833544 -3.85039195 0 0 Z " fill="#48A8F5" transform="translate(45,14)"/>
<path d="M0 0 C0.66644531 0.20044922 1.33289062 0.40089844 2.01953125 0.60742188 C3.9375 1.23828125 3.9375 1.23828125 7 2.6875 C7.69140625 4.77807617 7.69140625 4.77807617 8 6.6875 C4.8217277 7.90077677 1.63129889 9.07827085 -1.5625 10.25 C-2.90538086 10.76336914 -2.90538086 10.76336914 -4.27539062 11.28710938 C-13.19578678 14.52197831 -19.30085745 12.81471117 -27.9375 9.625 C-28.71673828 9.34333984 -29.49597656 9.06167969 -30.29882812 8.77148438 C-32.20140125 8.08282294 -34.10101725 7.38600097 -36 6.6875 C-35.73242188 4.79614258 -35.73242188 4.79614258 -35 2.6875 C-32.40100346 1.05296261 -29.41721624 0.30172713 -26.5 -0.625 C-25.33210938 -1.03975586 -25.33210938 -1.03975586 -24.140625 -1.46289062 C-15.58991109 -4.27301763 -8.35799929 -2.78882532 0 0 Z " fill="#43A5F5" transform="translate(38,11.3125)"/>
<path d="M0 0 C6.05889572 1.59683046 11.99826898 3.24496493 17.83203125 5.546875 C23.2684135 6.68312787 28.6105984 4.2302338 33.6875 2.4375 C40.59710744 0 40.59710744 0 44 0 C43.73242188 1.89135742 43.73242188 1.89135742 43 4 C40.40100346 5.63453739 37.41721624 6.38577287 34.5 7.3125 C33.72140625 7.58900391 32.9428125 7.86550781 32.140625 8.15039062 C23.58991109 10.96051763 16.35799929 9.47632532 8 6.6875 C7.33355469 6.48705078 6.66710937 6.28660156 5.98046875 6.08007812 C4.0625 5.44921875 4.0625 5.44921875 1 4 C0.0625 1.83203125 0.0625 1.83203125 0 0 Z " fill="#8DC8F8" transform="translate(2,30)"/>
<path d="M0 0 C5.12532035 1.00825974 9.67679667 2.23636363 14.5 4.25 C20.09472008 6.32959082 23.46892664 5.96060812 29 4 C30.02996094 3.65710938 31.05992188 3.31421875 32.12109375 2.9609375 C34.21975707 2.26054326 36.31281489 1.54300868 38.3984375 0.8046875 C41 0 41 0 44 0 C44 0.99 44 1.98 44 3 C40.8217277 4.21327677 37.63129889 5.39077085 34.4375 6.5625 C33.54224609 6.90474609 32.64699219 7.24699219 31.72460938 7.59960938 C22.80421322 10.83447831 16.69914255 9.12721117 8.0625 5.9375 C7.28326172 5.65583984 6.50402344 5.37417969 5.70117188 5.08398438 C3.79859875 4.39532294 1.89898275 3.69850097 0 3 C0 2.01 0 1.02 0 0 Z " fill="#48A8F5" transform="translate(2,27)"/>
<path d="M0 0 C6.05889572 1.59683046 11.99826898 3.24496493 17.83203125 5.546875 C23.2684135 6.68312787 28.6105984 4.2302338 33.6875 2.4375 C40.59710744 0 40.59710744 0 44 0 C44 0.99 44 1.98 44 3 C40.70063182 4.24645806 37.38429952 5.43975698 34.0625 6.625 C33.13630859 6.975625 32.21011719 7.32625 31.25585938 7.6875 C24.76755423 9.9640983 20.48881697 10.26112819 14 8 C13.33605225 7.78649902 12.67210449 7.57299805 11.98803711 7.35302734 C10.12437213 6.73282756 8.28024331 6.05484705 6.4375 5.375 C5.21933594 4.92898437 4.00117187 4.48296875 2.74609375 4.0234375 C1.83988281 3.68570312 0.93367187 3.34796875 0 3 C0 2.01 0 1.02 0 0 Z " fill="#89C6F8" transform="translate(2,24)"/>
<path d="M0 0 C6.05889572 1.59683046 11.99826898 3.24496493 17.83203125 5.546875 C23.2684135 6.68312787 28.6105984 4.2302338 33.6875 2.4375 C40.59710744 0 40.59710744 0 44 0 C44 0.99 44 1.98 44 3 C40.70063182 4.24645806 37.38429952 5.43975698 34.0625 6.625 C33.13630859 6.975625 32.21011719 7.32625 31.25585938 7.6875 C24.76755423 9.9640983 20.48881697 10.26112819 14 8 C13.33605225 7.78649902 12.67210449 7.57299805 11.98803711 7.35302734 C10.12437213 6.73282756 8.28024331 6.05484705 6.4375 5.375 C5.21933594 4.92898437 4.00117187 4.48296875 2.74609375 4.0234375 C1.83988281 3.68570312 0.93367187 3.34796875 0 3 C0 2.01 0 1.02 0 0 Z " fill="#89C6F8" transform="translate(2,18)"/>
</svg>
