<?xml version="1.0" standalone="no"?>
<!DOCTYPE svg PUBLIC "-//W3C//DTD SVG 20010904//EN"
 "http://www.w3.org/TR/2001/REC-SVG-20010904/DTD/svg10.dtd">
<svg version="1.0" xmlns="http://www.w3.org/2000/svg"
 width="48.000000pt" height="48.000000pt" viewBox="0 0 48.000000 48.000000"
 preserveAspectRatio="xMidYMid meet">

<g transform="translate(0.000000,48.000000) scale(0.100000,-0.100000)"
fill="#000000" stroke="none">
<path d="M72 408 c-17 -17 -17 -319 0 -336 17 -17 319 -17 336 0 17 17 17 319
0 336 -17 17 -319 17 -336 0z m108 -78 c0 -15 -7 -20 -25 -20 -18 0 -25 5 -25
20 0 15 7 20 25 20 18 0 25 -5 25 -20z m-5 -120 c0 -58 -2 -65 -20 -65 -17 0
-20 8 -23 54 -4 65 2 84 25 79 15 -3 18 -14 18 -68z m91 59 c4 -8 9 -8 17 0
18 18 55 13 67 -9 6 -12 10 -42 8 -68 -3 -39 -6 -47 -23 -47 -16 0 -21 8 -25
45 -3 31 -10 45 -20 45 -10 0 -17 -14 -20 -45 -4 -37 -9 -45 -25 -45 -17 0
-20 8 -23 54 -2 29 -1 60 2 67 6 17 32 18 42 3z"/>
</g>
</svg>
