<?xml version="1.0" standalone="no"?>
<!DOCTYPE svg PUBLIC "-//W3C//DTD SVG 20010904//EN"
 "http://www.w3.org/TR/2001/REC-SVG-20010904/DTD/svg10.dtd">
<svg version="1.0" xmlns="http://www.w3.org/2000/svg"
 width="48.000000pt" height="48.000000pt" viewBox="0 0 48.000000 48.000000"
 preserveAspectRatio="xMidYMid meet">

<g transform="translate(0.000000,48.000000) scale(0.100000,-0.100000)"
fill="#000000" stroke="none">
<path d="M50 385 c-16 -19 -25 -10 93 -84 l97 -61 98 61 c117 74 108 65 92 84
-19 22 -361 22 -380 0z"/>
<path d="M40 212 c0 -71 4 -112 12 -120 17 -17 359 -17 376 0 11 11 18 228 8
228 -3 0 -48 -27 -100 -60 l-96 -60 -96 60 c-52 33 -97 60 -100 60 -2 0 -4
-49 -4 -108z"/>
</g>
</svg>
