<?xml version="1.0" standalone="no"?>
<!DOCTYPE svg PUBLIC "-//W3C//DTD SVG 20010904//EN"
 "http://www.w3.org/TR/2001/REC-SVG-20010904/DTD/svg10.dtd">
<svg version="1.0" xmlns="http://www.w3.org/2000/svg"
 width="48.000000pt" height="48.000000pt" viewBox="0 0 48.000000 48.000000"
 preserveAspectRatio="xMidYMid meet">

<g transform="translate(0.000000,48.000000) scale(0.100000,-0.100000)"
fill="#000000" stroke="none">
<path d="M150 413 c-44 -23 -60 -39 -82 -82 -35 -66 -35 -112 -2 -179 34 -69
114 -120 114 -72 0 11 -5 17 -12 15 -17 -6 -29 3 -51 38 -20 31 -9 36 18 7 22
-24 41 -26 49 -3 5 11 -5 25 -30 46 -32 27 -35 33 -30 66 4 20 9 53 13 74 5
34 8 38 27 31 27 -10 125 -10 152 0 19 7 22 3 27 -31 4 -21 9 -54 13 -74 5
-32 2 -39 -26 -62 -17 -15 -37 -27 -43 -27 -8 0 -7 -4 1 -12 7 -7 12 -31 12
-55 0 -24 3 -43 8 -43 21 0 74 44 99 81 23 34 28 53 28 103 0 113 -68 192
-176 202 -46 5 -62 2 -109 -23z"/>
</g>
</svg>
