<?xml version="1.0" standalone="no"?>
<!DOCTYPE svg PUBLIC "-//W3C//DTD SVG 20010904//EN"
 "http://www.w3.org/TR/2001/REC-SVG-20010904/DTD/svg10.dtd">
<svg version="1.0" xmlns="http://www.w3.org/2000/svg"
 width="64.000000pt" height="48.000000pt" viewBox="0 0 64.000000 48.000000"
 preserveAspectRatio="xMidYMid meet">

<g transform="translate(0.000000,48.000000) scale(0.100000,-0.100000)"
fill="#000000" stroke="none">
<path d="M360 424 c-8 -19 -16 -25 -30 -21 -27 7 -43 -16 -35 -53 5 -22 3 -32
-9 -36 -24 -9 -19 -40 9 -58 18 -12 24 -23 20 -36 -8 -24 20 -40 57 -33 20 4
30 1 34 -11 9 -25 43 -19 56 9 7 16 19 25 33 25 32 0 52 27 37 50 -9 14 -8 21
3 30 22 19 19 61 -5 67 -14 4 -20 14 -20 33 0 31 -19 43 -54 34 -14 -3 -27 1
-35 10 -21 25 -50 19 -61 -10z m83 -46 c32 -17 46 -39 47 -72 1 -80 -109 -106
-146 -35 -18 36 -10 73 23 99 29 23 45 25 76 8z"/>
<path d="M421 324 c-25 -11 -31 -18 -23 -26 8 -8 19 -4 38 15 15 15 25 27 23
26 -2 0 -19 -7 -38 -15z"/>
<path d="M184 216 c-3 -9 -14 -15 -23 -14 -12 2 -16 -4 -14 -24 1 -16 -2 -28
-8 -28 -5 0 -9 -9 -9 -20 0 -11 6 -20 14 -20 8 0 16 -10 18 -22 2 -16 9 -22
21 -20 10 2 25 -3 34 -10 12 -10 17 -9 27 4 6 8 20 18 31 20 14 3 19 11 17 27
-1 13 3 30 10 38 10 12 9 17 -3 27 -8 6 -18 19 -22 29 -3 9 -14 17 -24 17 -10
0 -28 3 -40 6 -16 4 -25 1 -29 -10z m64 -32 c41 -28 19 -94 -32 -94 -55 0 -73
80 -23 100 30 12 30 12 55 -6z"/>
</g>
</svg>
