<?xml version="1.0" standalone="no"?>
<!DOCTYPE svg PUBLIC "-//W3C//DTD SVG 20010904//EN"
 "http://www.w3.org/TR/2001/REC-SVG-20010904/DTD/svg10.dtd">
<svg version="1.0" xmlns="http://www.w3.org/2000/svg"
 width="64.000000pt" height="59.000000pt" viewBox="0 0 64.000000 59.000000"
 preserveAspectRatio="xMidYMid meet">

<g transform="translate(0.000000,59.000000) scale(0.100000,-0.100000)"
fill="#000000" stroke="none">
<path d="M0 295 l0 -295 320 0 320 0 0 295 0 295 -320 0 -320 0 0 -295z m468
223 c0 -35 0 -68 1 -74 1 -7 18 -15 39 -18 55 -10 92 -27 92 -42 0 -8 -27 -48
-61 -89 -63 -78 -79 -114 -79 -178 0 -34 -3 -38 -22 -35 -36 5 -37 74 -4 123
15 21 26 43 26 49 -1 6 -8 -2 -17 -19 -41 -78 -100 -115 -183 -115 l-50 0 -25
-50 c-29 -58 -49 -70 -73 -46 -14 14 -14 21 -4 46 7 17 17 43 24 60 11 26 10
32 -9 52 -90 96 -59 253 62 309 70 32 154 20 208 -29 l27 -26 0 52 c0 29 4 52
9 52 6 0 9 -28 7 -62 -2 -35 2 -72 8 -83 5 -11 13 -42 17 -70 l6 -50 2 41 c1
40 2 42 40 48 22 3 43 11 46 16 8 13 -37 30 -78 30 l-32 0 3 85 c4 97 21 117
20 23z m32 -10 c0 -51 -3 -68 -10 -58 -11 17 -13 73 -4 108 11 38 14 25 14
-50z m-90 42 c0 -5 -2 -10 -4 -10 -3 0 -8 5 -11 10 -3 6 -1 10 4 10 6 0 11 -4
11 -10z m120 -9 c0 -11 6 -22 13 -24 6 -3 2 -6 -10 -6 -18 -1 -23 5 -23 24 0
14 5 25 10 25 6 0 10 -9 10 -19z m-121 -46 c0 -29 -1 -29 -10 -7 -5 13 -13 20
-19 17 -6 -4 -10 5 -10 19 0 24 2 25 20 14 13 -9 20 -23 19 -43z m121 -5 c0
-5 -4 -10 -10 -10 -5 0 -10 5 -10 10 0 6 5 10 10 10 6 0 10 -4 10 -10z"/>
<path d="M193 430 c-86 -52 -81 -192 7 -237 51 -26 135 -10 169 31 10 12 3 26
-43 81 -31 36 -56 71 -56 79 0 8 17 21 38 29 l37 15 -28 11 c-42 16 -88 13
-124 -9z"/>
<path d="M338 399 c-26 -15 -22 -26 14 -33 38 -8 43 -4 28 23 -12 24 -17 25
-42 10z"/>
</g>
</svg>
